<svg width="57" height="57" viewBox="0 0 57 57" fill="none" xmlns="http://www.w3.org/2000/svg">
<circle cx="26.5" cy="27.5" r="26.5" fill="#5061FF"/>
<path d="M33.9449 14.1736C33.0371 14.186 32.1696 14.5503 31.5253 15.1898L15.1875 31.5276C14.5347 32.1835 14.1691 33.072 14.1713 33.9974L14.162 38.6663C14.1614 38.8203 14.1913 38.9729 14.2499 39.1153C14.3085 39.2577 14.3948 39.3871 14.5037 39.496C14.6126 39.6049 14.742 39.6911 14.8843 39.7498C15.0267 39.8084 15.1793 39.8383 15.3333 39.8377L20.0023 39.8283C20.4605 39.8295 20.9145 39.7403 21.3383 39.566C21.762 39.3916 22.1473 39.1355 22.4721 38.8122L38.8099 22.4744C39.461 21.8149 39.8262 20.9255 39.8262 19.9987C39.8262 19.072 39.461 18.1825 38.8099 17.5231L36.4765 15.1898C36.1442 14.8595 35.7488 14.5993 35.3139 14.4247C34.879 14.2502 34.4134 14.1648 33.9449 14.1736ZM33.9799 16.4976C34.2949 16.4929 34.5982 16.6189 34.8222 16.8418L37.1579 19.1774C37.2682 19.2841 37.3559 19.4119 37.4158 19.5532C37.4757 19.6945 37.5065 19.8464 37.5065 19.9999C37.5065 20.1534 37.4757 20.3053 37.4158 20.4466C37.3559 20.5879 37.2682 20.7157 37.1579 20.8224L35.6471 22.3309L31.6688 18.3526L33.1773 16.8418C33.3896 16.6273 33.6782 16.5039 33.9799 16.4976ZM30.0191 20.0022L33.9974 23.9805L21.6449 36.333L17.6666 32.3548L30.0191 20.0022ZM16.4953 34.4827L19.5146 37.502H16.4953V34.4827Z" fill="white"/>
</svg>
