<svg xmlns="http://www.w3.org/2000/svg" width="24" height="24" viewBox="0 0 24 24" fill="none">
  <g clip-path="url(#clip0_454_10)">
    <path d="M15.0193 4C15.0193 2.89543 15.9163 2 17.0228 2C18.1293 2 19.0263 2.89543 19.0263 4C19.0263 5.10457 18.1293 6 17.0228 6C15.9163 6 15.0193 5.10457 15.0193 4ZM20.6291 10.75L18.6957 10.36C18.4693 10.3096 18.2675 10.1824 18.1247 10L15.9008 7.41C15.1391 6.51506 14.0219 5.99949 12.8455 6H9.7801C9.1424 6.00153 8.54352 6.30602 8.16728 6.82L6.48434 9.13C6.40671 9.23855 6.37574 9.37355 6.39831 9.50501C6.42089 9.63646 6.49514 9.75346 6.60455 9.83L7.40595 10.41C7.51249 10.4912 7.64768 10.5254 7.78013 10.5047C7.91257 10.4839 8.03073 10.4099 8.10718 10.3L9.55971 8.3C9.70577 8.1108 9.93151 7.99997 10.1708 8H11.7235L9.29926 11.21L9.13898 11.43C8.97395 11.6491 8.90624 11.9262 8.95169 12.1965C8.99714 12.4668 9.15176 12.7067 9.3794 12.86L13.6869 15.72C13.8922 15.8647 14.0152 16.0992 14.0175 16.35V21.5C14.0175 21.7761 14.2418 22 14.5184 22H15.5201C15.7968 22 16.021 21.7761 16.021 21.5V16C16.0231 15.3293 15.6883 14.7022 15.1294 14.33L13.0158 12.89L15.3198 9.84L16.572 11.32C17.0105 11.8354 17.6106 12.1878 18.2749 12.32L20.3987 12.74C20.546 12.77 20.6991 12.7324 20.8156 12.6374C20.9322 12.5424 20.9997 12.4002 20.9997 12.25V11.25C21.0077 11.0176 20.8541 10.8103 20.6291 10.75ZM8.37765 15.7C8.23682 15.8901 8.01346 16.0016 7.7766 16H4.50087C4.22425 16 4 16.2239 4 16.5V17.5C4 17.7761 4.22425 18 4.50087 18H8.15726C8.78788 18 9.38169 17.7036 9.76006 17.2L10.7618 15.87L9.06886 14.76L8.37765 15.7Z" fill="#5061FF"/>
  </g>
  <defs>
    <clipPath id="clip0_454_10">
      <rect width="24" height="24" fill="white"/>
    </clipPath>
  </defs>
</svg>